<svg width="50" height="25" viewBox="0 0 50 25" fill="none" xmlns="http://www.w3.org/2000/svg">
<path d="M46.7334 10.8643L47.8174 11.9482C48.2764 12.4072 48.2764 13.1494 47.8174 13.6035L38.3301 23.0957C37.8711 23.5547 37.1289 23.5547 36.6748 23.0957L27.1826 13.6035C26.7236 13.1445 26.7236 12.4023 27.1826 11.9482L28.2666 10.8643C28.7305 10.4004 29.4873 10.4102 29.9414 10.8838L35.5469 16.7676V2.73438C35.5469 2.08496 36.0693 1.5625 36.7188 1.5625H38.2813C38.9307 1.5625 39.4531 2.08496 39.4531 2.73438V16.7676L45.0586 10.8838C45.5127 10.4053 46.2695 10.3955 46.7334 10.8643V10.8643Z" fill="black"/>
<path d="M3.2666 14.1357L2.18262 13.0518C1.72363 12.5928 1.72363 11.8506 2.18262 11.3965L11.6699 1.9043C12.1289 1.44531 12.8711 1.44531 13.3252 1.9043L22.8125 11.3916C23.2715 11.8506 23.2715 12.5928 22.8125 13.0469L21.7285 14.1309C21.2646 14.5947 20.5078 14.585 20.0537 14.1113L14.4531 8.23242V22.2656C14.4531 22.915 13.9307 23.4375 13.2813 23.4375H11.7188C11.0693 23.4375 10.5469 22.915 10.5469 22.2656V8.23242L4.94141 14.1162C4.4873 14.5947 3.73047 14.6045 3.2666 14.1357V14.1357Z" fill="black"/>
</svg>
