<svg width="26" height="26" viewBox="0 0 26 26" fill="none" xmlns="http://www.w3.org/2000/svg">
<g clip-path="url(#clip0_4_21)">
<path d="M24.1738 17.9429V1.53668C24.1738 0.887268 23.6513 0.364807 23.0019 0.364807H6.98626C4.39837 0.364807 2.29876 2.46442 2.29876 5.05231V20.6773C2.29876 23.2652 4.39837 25.3648 6.98626 25.3648H23.0019C23.6513 25.3648 24.1738 24.8423 24.1738 24.1929V23.4117C24.1738 23.0455 24.0029 22.7134 23.7392 22.4986C23.5341 21.7466 23.5341 19.6031 23.7392 18.8511C24.0029 18.6412 24.1738 18.3091 24.1738 17.9429ZM8.54876 6.90778C8.54876 6.74664 8.68059 6.61481 8.84173 6.61481H19.1933C19.3544 6.61481 19.4863 6.74664 19.4863 6.90778V7.88434C19.4863 8.04547 19.3544 8.17731 19.1933 8.17731H8.84173C8.68059 8.17731 8.54876 8.04547 8.54876 7.88434V6.90778ZM8.54876 10.0328C8.54876 9.87164 8.68059 9.73981 8.84173 9.73981H19.1933C19.3544 9.73981 19.4863 9.87164 19.4863 10.0328V11.0093C19.4863 11.1705 19.3544 11.3023 19.1933 11.3023H8.84173C8.68059 11.3023 8.54876 11.1705 8.54876 11.0093V10.0328ZM20.9218 22.2398H6.98626C6.122 22.2398 5.42376 21.5416 5.42376 20.6773C5.42376 19.8179 6.12688 19.1148 6.98626 19.1148H20.9218C20.829 19.9498 20.829 21.4048 20.9218 22.2398Z" fill="white"/>
</g>
<defs>
<clipPath id="clip0_4_21">
<rect width="25" height="25" fill="white" transform="translate(0.736258 0.364807)"/>
</clipPath>
</defs>
</svg>
