<svg width="25" height="25" viewBox="0 0 25 25" fill="none" xmlns="http://www.w3.org/2000/svg">
<path d="M14.0625 1.90701V2.72044C14.0625 3.24798 14.418 3.70476 14.9261 3.84671C18.7111 4.90398 21.4844 8.37488 21.4844 12.5C21.4844 17.4653 17.4661 21.4844 12.5 21.4844C7.53471 21.4844 3.51562 17.466 3.51562 12.5C3.51562 8.37547 6.28837 4.90408 10.0738 3.84671C10.582 3.70476 10.9375 3.24788 10.9375 2.72029V1.9074C10.9375 1.14036 10.2132 0.58157 9.4704 0.772928C4.22865 2.12312 0.361028 6.8948 0.390765 12.565C0.425921 19.257 5.83398 24.6234 12.5261 24.6093C19.2019 24.5952 24.6094 19.1791 24.6094 12.5C24.6094 6.85384 20.7451 2.11038 15.517 0.769705C14.7792 0.580496 14.0625 1.14529 14.0625 1.90701Z" fill="white"/>
</svg>
