<svg width="25" height="25" viewBox="0 0 25 25" fill="none" xmlns="http://www.w3.org/2000/svg">
<path d="M12.9893 0C9.09189 0 6.56753 1.59683 4.58564 4.44463C4.22612 4.96123 4.33696 5.66953 4.83847 6.0498L6.94482 7.64692C7.45132 8.03096 8.17197 7.94116 8.5685 7.44438C9.7916 5.91211 10.6989 5.02988 12.6094 5.02988C14.1115 5.02988 15.9695 5.99663 15.9695 7.45327C15.9695 8.55444 15.0605 9.11997 13.5773 9.95151C11.8477 10.9212 9.55879 12.1281 9.55879 15.1471V15.625C9.55879 16.2722 10.0834 16.7969 10.7307 16.7969H14.2693C14.9165 16.7969 15.4412 16.2722 15.4412 15.625V15.3431C15.4412 13.2503 21.5578 13.1632 21.5578 7.5C21.5578 3.23516 17.1339 0 12.9893 0ZM12.5 18.2353C10.635 18.2353 9.11763 19.7526 9.11763 21.6177C9.11763 23.4827 10.635 25 12.5 25C14.365 25 15.8824 23.4827 15.8824 21.6176C15.8824 19.7526 14.365 18.2353 12.5 18.2353Z" fill="#727588"/>
</svg>
